<?xml version="1.0" standalone="no"?>
<!DOCTYPE svg PUBLIC "-//W3C//DTD SVG 20010904//EN"
 "http://www.w3.org/TR/2001/REC-SVG-20010904/DTD/svg10.dtd">
<svg version="1.0" xmlns="http://www.w3.org/2000/svg"
 width="584.000000pt" height="170.000000pt" viewBox="0 0 584.000000 170.000000"
 preserveAspectRatio="xMidYMid meet">

<g transform="translate(0.000000,170.000000) scale(0.100000,-0.100000)"
fill="#000000" stroke="none">
<path d="M1805 1587 c-65 -22 -99 -43 -138 -86 -66 -73 -68 -95 -65 -573 4
-472 2 -458 76 -540 62 -69 147 -93 276 -79 99 12 158 37 214 93 64 63 84 127
90 286 l4 132 -68 0 c-38 0 -85 -3 -105 -6 l-37 -6 -4 -112 c-5 -135 -20 -170
-77 -187 -54 -16 -107 -4 -129 29 -15 23 -17 65 -20 412 -2 352 -1 388 15 420
13 24 29 39 54 47 41 13 103 3 127 -20 18 -19 31 -84 32 -166 l0 -63 31 6 c17
3 65 6 107 6 l75 0 -5 103 c-8 160 -52 239 -163 288 -62 28 -227 37 -290 16z"/>
<path d="M100 1479 l0 -101 115 3 115 4 0 -607 c0 -572 1 -608 18 -608 16 0
99 12 180 25 l32 6 0 594 0 594 113 3 112 3 3 93 3 92 -346 0 -345 0 0 -101z"/>
<path d="M880 910 c0 -529 3 -670 13 -670 6 0 120 11 252 25 132 14 261 25
288 25 l47 0 0 100 c0 81 -3 100 -14 100 -23 0 -265 -19 -319 -25 l-47 -6 2
198 3 198 115 6 c63 4 132 7 153 8 l37 1 0 92 0 91 -155 -6 -155 -5 0 179 0
179 190 0 190 0 0 90 0 90 -300 0 -300 0 0 -670z"/>
<path d="M2390 963 l0 -618 110 3 110 3 0 269 0 268 118 4 c64 2 120 2 125 0
4 -2 7 -124 7 -273 l0 -269 115 0 115 0 0 615 0 615 -115 0 -115 0 0 -255 0
-255 -125 0 -125 0 0 255 0 255 -110 0 -110 0 0 -617z"/>
<path d="M3240 966 l0 -615 108 -3 c59 -2 110 -2 115 0 4 2 7 120 7 263 l0
259 140 0 141 0 -3 88 -3 87 -137 3 -138 3 0 179 0 180 180 0 180 0 0 85 0 85
-295 0 -295 0 0 -614z"/>
<path d="M3930 951 l0 -628 133 -7 c72 -4 202 -13 287 -20 85 -7 158 -11 163
-9 4 2 7 46 7 98 l0 93 -82 7 c-46 3 -128 9 -183 13 l-100 7 -3 538 -2 537
-110 0 -110 0 0 -629z"/>
<path d="M4610 926 l0 -654 88 -7 c48 -3 97 -9 110 -12 l22 -5 0 666 0 666
-110 0 -110 0 0 -654z"/>
<path d="M4960 1573 c0 -4 38 -113 84 -243 46 -129 97 -271 112 -315 l27 -80
-115 -325 c-64 -179 -119 -335 -122 -346 -7 -25 4 -28 130 -40 l72 -6 88 266
c49 146 91 262 95 258 6 -7 84 -259 145 -472 15 -52 29 -97 31 -99 3 -5 227
-39 231 -36 4 4 -33 128 -150 497 l-91 286 112 321 c61 177 111 326 111 332 0
6 -38 9 -102 7 l-101 -3 -81 -237 c-45 -131 -83 -238 -86 -238 -3 0 -41 108
-84 240 l-77 240 -115 0 c-63 0 -114 -3 -114 -7z"/>
</g>
</svg>
